<svg width="32" height="26" viewBox="0 0 32 26" fill="none" xmlns="http://www.w3.org/2000/svg">
<path d="M21.4649 24.4987V22.6719L22.3767 20.5612C23.0226 19.2124 23.9064 16.5727 22.6714 15.3298C20.7245 13.3704 18.0016 13.0117 16.4414 13.0811V7.82905C16.4414 6.94624 15.7258 6.23059 14.843 6.23059C13.9603 6.23059 13.2447 6.94624 13.2447 7.82905L13.2448 17.1915M13.2448 24.4987V22.6719C13.2448 22.6719 11.5751 20.7633 11.1209 20.0152C10.5343 19.049 9.75394 18.0058 10.1611 16.8339C10.6177 15.5194 13.2448 13.5378 13.2448 13.5378" stroke="#44D62C" stroke-width="1.5" stroke-linecap="round" stroke-linejoin="round"/>
<path d="M27.7449 0.750183L29.5422 7.45825L22.8345 9.25567" stroke="#44D62C" stroke-width="1.5" stroke-linecap="round" stroke-linejoin="round"/>
<path d="M9.16272 9.25574L2.45509 7.45832L4.25239 0.750252" stroke="#44D62C" stroke-width="1.5" stroke-linecap="round" stroke-linejoin="round"/>
<path d="M29.2284 7.14407C25.716 3.63501 20.9521 1.66364 15.9849 1.66364C11.0176 1.66363 6.25373 3.635 2.74133 7.14407" stroke="#44D62C" stroke-width="1.5"/>
</svg>
