<svg preserveAspectRatio="none" width="100%" height="100%" overflow="visible" style="display: block;" viewBox="0 0 124 124" fill="none" xmlns="http://www.w3.org/2000/svg">
<g id="Group 427322748">
<circle id="Ellipse 75" cx="62" cy="62" r="47.5" fill="var(--fill-0, #44D62C)" stroke="var(--stroke-0, #44D62C)"/>
<circle id="Ellipse 76" cx="62" cy="62" r="60" stroke="var(--stroke-0, #707070)" stroke-width="4"/>
<path id="Ellipse 77" d="M122 62C122 73.8669 118.481 85.4673 111.888 95.3342C105.295 105.201 95.9246 112.892 84.961 117.433C73.9975 121.974 61.9335 123.162 50.2946 120.847C38.6557 118.532 27.9648 112.818 19.5736 104.426C11.1825 96.0353 5.46802 85.3443 3.15291 73.7054C0.837798 62.0666 2.026 50.0026 6.56726 39.039C11.1085 28.0754 18.7989 18.7047 28.6658 12.1118C38.5328 5.51894 50.1331 2 62 2" stroke="var(--stroke-0, #44D62C)" stroke-width="4"/>
<path id="Vector" d="M49.4546 43.8019C45.299 46.5012 42.1285 50.4687 40.4158 55.1129C38.7031 59.7572 38.5399 64.8295 39.9504 69.5739C41.3609 74.3182 44.2696 78.4807 48.243 81.4407C52.2165 84.4008 57.0419 86 62 86C66.9582 86 71.7836 84.4008 75.757 81.4407C79.7305 78.4807 82.6392 74.3182 84.0497 69.5739C85.4602 64.8295 85.2969 59.7572 83.5842 55.1129C81.8715 50.4687 78.7011 46.5012 74.5455 43.8019M62 38V63.044" stroke="var(--stroke-0, white)" stroke-width="3" stroke-linejoin="round"/>
</g>
</svg>
