<svg width="32" height="32" viewBox="0 0 32 32" fill="none" xmlns="http://www.w3.org/2000/svg">
<path d="M6.39756 28.5V26.9375H25.6024V28.5H6.39756ZM6.30733 23.9937L4.05489 12.0547C4.00304 12.0755 3.94496 12.087 3.88067 12.0891C3.81533 12.0922 3.75674 12.0938 3.70489 12.0938C3.21644 12.0938 2.81044 11.9271 2.48689 11.5938C2.16333 11.2604 2.00104 10.8562 2 10.3812C2 9.88854 2.1623 9.46979 2.48689 9.125C2.81044 8.78125 3.21696 8.60938 3.70644 8.60938C4.19593 8.60938 4.6123 8.78125 4.95556 9.125C5.29778 9.46979 5.46889 9.88854 5.46889 10.3812C5.46889 10.4896 5.46474 10.5901 5.45644 10.6828C5.44815 10.7755 5.41756 10.8672 5.36467 10.9578L10.3456 12.9656L14.9671 6.64531C14.7421 6.4974 14.5637 6.30156 14.432 6.05781C14.3003 5.8151 14.2344 5.55312 14.2344 5.27187C14.2344 4.78021 14.4061 4.36198 14.7493 4.01719C15.0916 3.6724 15.5079 3.5 15.9984 3.5C16.4879 3.5 16.9048 3.67187 17.2491 4.01562C17.5934 4.35937 17.7656 4.77604 17.7656 5.26563C17.7656 5.56146 17.6997 5.82813 17.568 6.06563C17.4363 6.30521 17.2579 6.49844 17.0329 6.64531L21.6529 12.9656L26.6353 10.9578C26.6073 10.8745 26.583 10.7833 26.5622 10.6844C26.5415 10.5844 26.5311 10.4833 26.5311 10.3812C26.5311 9.88854 26.6929 9.46979 27.0164 9.125C27.34 8.78125 27.7465 8.60938 28.236 8.60938C28.7255 8.60938 29.1419 8.78125 29.4851 9.125C29.8284 9.46979 30 9.88854 30 10.3812C30 10.8542 29.8279 11.2578 29.4836 11.5922C29.1393 11.9266 28.7213 12.0938 28.2298 12.0938C28.1904 12.0938 28.1458 12.0875 28.096 12.075C28.0462 12.0625 27.9923 12.0557 27.9342 12.0547L25.6927 23.9922L6.30733 23.9937ZM7.63578 22.4312H24.3642L26.2729 12.8422L21.1131 14.9094L16 7.88125L10.8884 14.9094L5.72711 12.8422L7.63578 22.4312Z" fill="#44D62C"/>
</svg>
