<svg width="17" height="17" viewBox="0 0 17 17" fill="none" xmlns="http://www.w3.org/2000/svg">
<path d="M4.80769 8.49992C4.80769 9.47919 5.1967 10.4183 5.88914 11.1108C6.58159 11.8032 7.52074 12.1922 8.5 12.1922C9.47926 12.1922 10.4184 11.8032 11.1109 11.1108C11.8033 10.4183 12.1923 9.47919 12.1923 8.49992C12.1923 7.52066 11.8033 6.58151 11.1109 5.88907C10.4184 5.19663 9.47926 4.80762 8.5 4.80762C7.52074 4.80762 6.58159 5.19663 5.88914 5.88907C5.1967 6.58151 4.80769 7.52066 4.80769 8.49992Z" stroke="#CCCCCC" stroke-linecap="round" stroke-linejoin="round"/>
<path d="M3.7131 3.7139L2.84295 2.84375" stroke="#CCCCCC" stroke-linecap="round" stroke-linejoin="round"/>
<path d="M1.73077 8.5H0.5" stroke="#CCCCCC" stroke-linecap="round" stroke-linejoin="round"/>
<path d="M3.7131 13.2869L2.84295 14.157" stroke="#CCCCCC" stroke-linecap="round" stroke-linejoin="round"/>
<path d="M8.5 15.2693V16.5001" stroke="#CCCCCC" stroke-linecap="round" stroke-linejoin="round"/>
<path d="M14.1566 14.157L13.2865 13.2869" stroke="#CCCCCC" stroke-linecap="round" stroke-linejoin="round"/>
<path d="M16.5 8.5H15.2692" stroke="#CCCCCC" stroke-linecap="round" stroke-linejoin="round"/>
<path d="M14.1566 2.84375L13.2865 3.7139" stroke="#CCCCCC" stroke-linecap="round" stroke-linejoin="round"/>
<path d="M8.5 0.5V1.73077" stroke="#CCCCCC" stroke-linecap="round" stroke-linejoin="round"/>
</svg>
