<svg width="56" height="56" viewBox="0 0 56 56" fill="none" xmlns="http://www.w3.org/2000/svg">
<path d="M32.8889 34.3158H23.1111M17 27.9874V31.1579C17 35.3263 17 37.4105 18.2528 38.7053C19.5056 40 21.5222 40 25.5556 40H30.4444C34.4778 40 36.4944 40 37.7472 38.7053C39 37.4105 39 35.3263 39 31.1579V27.9874C39 25.8627 39 24.8017 38.5649 23.8821C38.1298 22.9625 37.3182 22.3107 35.6976 21.0072L33.2531 19.0429C30.7292 17.0143 29.4667 16 28 16C26.5333 16 25.2708 17.0143 22.7469 19.0429L20.3024 21.0072C18.6806 22.3107 17.8702 22.9625 17.4351 23.8821C17 24.8017 17 25.8627 17 27.9874Z" stroke="#44D62C" stroke-width="1.5" stroke-linecap="round" stroke-linejoin="round"/>
</svg>
