<svg width="230" height="230" viewBox="0 0 230 230" fill="none" xmlns="http://www.w3.org/2000/svg">
<path d="M112.482 227.04C112.482 225.899 113.394 224.986 114.535 224.986C115.676 224.986 116.614 225.899 116.614 227.04C116.614 228.18 115.676 229.118 114.535 229.118C113.394 229.118 112.482 228.18 112.482 227.04ZM112.482 216.798C112.482 215.657 113.394 214.745 114.535 214.745C115.676 214.745 116.614 215.657 116.614 216.798C116.614 217.939 115.676 218.877 114.535 218.877C113.394 218.877 112.482 217.939 112.482 216.798ZM112.482 206.556C112.482 205.415 113.394 204.503 114.535 204.503C115.676 204.503 116.614 205.415 116.614 206.556C116.614 207.697 115.676 208.635 114.535 208.635C113.394 208.635 112.482 207.697 112.482 206.556ZM112.482 196.315C112.482 195.174 113.394 194.261 114.535 194.261C115.676 194.261 116.614 195.174 116.614 196.315C116.614 197.455 115.676 198.393 114.535 198.393C113.394 198.393 112.482 197.455 112.482 196.315ZM112.482 186.073C112.482 184.932 113.394 184.019 114.535 184.019C115.676 184.019 116.614 184.932 116.614 186.073C116.614 187.214 115.676 188.152 114.535 188.152C113.394 188.152 112.482 187.214 112.482 186.073Z" fill="url(#paint0_radial_1_599)"/>
<path d="M112.482 43.0455C112.482 41.9047 113.394 40.9667 114.535 40.9667C115.676 40.9667 116.614 41.9047 116.614 43.0455C116.614 44.1862 115.676 45.0989 114.535 45.0989C113.394 45.0989 112.482 44.1862 112.482 43.0455ZM112.482 32.8038C112.482 31.663 113.394 30.725 114.535 30.725C115.676 30.725 116.614 31.663 116.614 32.8038C116.614 33.9446 115.676 34.8572 114.535 34.8572C113.394 34.8572 112.482 33.9446 112.482 32.8038ZM112.482 22.5621C112.482 21.4213 113.394 20.4834 114.535 20.4834C115.676 20.4834 116.614 21.4213 116.614 22.5621C116.614 23.7029 115.676 24.6155 114.535 24.6155C113.394 24.6155 112.482 23.7029 112.482 22.5621ZM112.482 12.3204C112.482 11.1797 113.394 10.2417 114.535 10.2417C115.676 10.2417 116.614 11.1797 116.614 12.3204C116.614 13.4612 115.676 14.3738 114.535 14.3738C113.394 14.3738 112.482 13.4612 112.482 12.3204ZM112.482 2.07876C112.482 0.937976 113.394 0 114.535 0C115.676 0 116.614 0.937976 116.614 2.07876C116.614 3.21954 115.676 4.13216 114.535 4.13216C113.394 4.13216 112.482 3.21954 112.482 2.07876Z" fill="url(#paint1_radial_1_599)"/>
<path d="M92.2764 226.938C91.161 226.71 90.4512 225.62 90.654 224.505C90.8821 223.389 91.9722 222.654 93.0876 222.882C94.2031 223.11 94.9382 224.2 94.7101 225.316C94.5073 226.305 93.6454 226.964 92.682 226.964C92.682 226.964 92.4285 226.964 92.2764 226.964V226.938ZM94.2791 216.874C93.1637 216.671 92.4285 215.581 92.6567 214.466C92.8848 213.35 93.9496 212.615 95.0903 212.843C96.2058 213.046 96.9156 214.136 96.7128 215.252C96.51 216.24 95.6481 216.925 94.6847 216.925C94.6847 216.925 94.4059 216.925 94.2791 216.874ZM96.2565 206.835C95.141 206.607 94.4312 205.517 94.634 204.402C94.8622 203.286 95.9523 202.551 97.0677 202.779C98.1831 203.007 98.9183 204.097 98.6901 205.213C98.4873 206.201 97.6254 206.886 96.6621 206.886C96.6621 206.886 96.4086 206.886 96.2565 206.835ZM98.2592 196.796C97.1437 196.568 96.4086 195.478 96.6367 194.363C96.8649 193.247 97.9296 192.512 99.0704 192.74C100.186 192.968 100.896 194.033 100.693 195.174C100.49 196.137 99.6281 196.822 98.6648 196.822C98.6648 196.822 98.3859 196.822 98.2592 196.796ZM100.262 186.732C99.1211 186.529 98.4113 185.414 98.6141 184.324C98.8422 183.183 99.9323 182.473 101.048 182.701C102.163 182.904 102.898 183.994 102.67 185.11C102.493 186.098 101.631 186.783 100.642 186.783C100.642 186.783 100.389 186.757 100.262 186.732Z" fill="url(#paint2_radial_1_599)"/>
<path d="M128.046 46.4425C126.931 46.2143 126.196 45.1242 126.424 44.0088C126.652 42.8934 127.742 42.1582 128.858 42.3864C129.973 42.6145 130.708 43.6792 130.48 44.82C130.277 45.7834 129.415 46.4678 128.452 46.4678C128.452 46.4678 128.198 46.4678 128.046 46.4425ZM130.049 36.3783C128.908 36.1501 128.199 35.06 128.427 33.9446C128.629 32.8292 129.72 32.1193 130.835 32.3221C131.95 32.5503 132.686 33.6404 132.457 34.7558C132.28 35.7445 131.418 36.429 130.455 36.429C130.303 36.429 130.176 36.4036 130.049 36.3783ZM132.026 26.3394C130.911 26.1112 130.176 25.0211 130.404 23.9057C130.632 22.7903 131.722 22.0551 132.838 22.2833C133.953 22.5114 134.688 23.6015 134.46 24.7169C134.257 25.7056 133.395 26.3647 132.432 26.3647C132.432 26.3647 132.179 26.3647 132.026 26.3647V26.3394ZM134.029 16.3005C132.914 16.0723 132.179 14.9823 132.407 13.8668C132.635 12.7514 133.7 12.0162 134.84 12.2444C135.956 12.4472 136.666 13.5373 136.463 14.6527C136.26 15.6414 135.398 16.3259 134.435 16.3259C134.283 16.3259 134.156 16.3259 134.029 16.3259V16.3005ZM136.007 6.23628C134.891 6.00812 134.181 4.91805 134.384 3.80261C134.612 2.68718 135.702 1.97737 136.818 2.18017C137.933 2.40833 138.668 3.49841 138.44 4.61384C138.237 5.60251 137.375 6.28698 136.412 6.28698C136.412 6.28698 136.159 6.28698 136.007 6.23628Z" fill="url(#paint3_radial_1_599)"/>
<path d="M70.8565 220.449C69.8171 220.018 69.3101 218.801 69.741 217.762C70.172 216.697 71.3888 216.215 72.4282 216.646C73.4929 217.077 74 218.269 73.569 219.333C73.2394 220.145 72.4536 220.601 71.6423 220.601C71.3888 220.601 71.11 220.55 70.8565 220.449ZM74.7605 210.993C73.7211 210.562 73.2141 209.345 73.645 208.281C74.076 207.241 75.2928 206.734 76.3322 207.165C77.3969 207.596 77.904 208.813 77.473 209.878C77.1434 210.664 76.3576 211.145 75.5463 211.145C75.2928 211.145 75.014 211.095 74.7605 210.993ZM78.6645 201.512C77.6251 201.081 77.1181 199.889 77.549 198.825C77.98 197.76 79.1968 197.278 80.2362 197.709C81.3009 198.14 81.808 199.357 81.377 200.397C81.0474 201.208 80.2869 201.664 79.4503 201.664C79.1968 201.664 78.9433 201.613 78.6645 201.512ZM82.5685 192.056C81.5291 191.625 81.0221 190.408 81.453 189.344C81.884 188.304 83.1009 187.797 84.1656 188.228C85.205 188.659 85.712 189.876 85.281 190.941C84.9514 191.727 84.1656 192.208 83.3543 192.208C83.1008 192.208 82.8473 192.158 82.5685 192.056ZM86.4978 182.575C85.4331 182.144 84.9261 180.953 85.3571 179.888C85.788 178.823 87.0049 178.341 88.0696 178.772C89.109 179.203 89.616 180.395 89.185 181.46C88.8555 182.271 88.0949 182.727 87.2837 182.727C87.0049 182.727 86.7514 182.676 86.4978 182.575Z" fill="url(#paint4_radial_1_599)"/>
<path d="M141.027 50.3203C139.962 49.8893 139.455 48.6978 139.911 47.6331C140.342 46.5937 141.534 46.0867 142.598 46.5177C143.638 46.9486 144.145 48.1655 143.714 49.2049C143.384 50.0161 142.624 50.4977 141.813 50.4977C141.534 50.4977 141.28 50.447 141.027 50.3203ZM144.931 40.8645C143.866 40.4335 143.359 39.2167 143.815 38.1773C144.246 37.1126 145.438 36.6056 146.503 37.0619C147.567 37.4928 148.049 38.6843 147.618 39.749C147.288 40.5349 146.528 41.0166 145.717 41.0166C145.463 41.0166 145.184 40.9659 144.931 40.8645ZM148.835 31.4087C147.77 30.9777 147.263 29.7609 147.719 28.6961C148.15 27.6568 149.342 27.1498 150.407 27.5807C151.471 28.0117 151.953 29.2285 151.522 30.2932C151.192 31.0791 150.432 31.5608 149.621 31.5608C149.367 31.5608 149.088 31.5101 148.835 31.4087ZM152.739 21.9275C151.674 21.4966 151.192 20.3051 151.623 19.2403C152.054 18.1756 153.246 17.6939 154.311 18.1249C155.375 18.5559 155.882 19.7727 155.426 20.8121C155.096 21.6233 154.336 22.105 153.525 22.105C153.271 22.105 152.992 22.0543 152.739 21.9275ZM156.643 12.4717C155.578 12.0407 155.096 10.8239 155.527 9.78453C155.958 8.71981 157.15 8.21279 158.215 8.6691C159.279 9.10007 159.786 10.2915 159.33 11.3563C159 12.1421 158.24 12.6238 157.429 12.6238C157.175 12.6238 156.896 12.5731 156.643 12.4717Z" fill="url(#paint5_radial_1_599)"/>
<path d="M51.1326 209.929C50.1693 209.32 49.9158 208.028 50.5495 207.09C51.1833 206.126 52.4508 205.873 53.4142 206.506C54.3521 207.14 54.631 208.408 53.9719 209.371C53.5916 209.954 52.9325 210.284 52.2734 210.284C51.8678 210.284 51.4875 210.182 51.1326 209.929ZM56.8112 201.411C55.8478 200.777 55.5943 199.51 56.2281 198.546C56.8619 197.608 58.1294 197.33 59.0927 197.963C60.0307 198.597 60.2842 199.89 59.6504 200.828C59.2702 201.436 58.611 201.766 57.9266 201.766C57.5463 201.766 57.1407 201.639 56.8112 201.411ZM62.4644 192.868C61.5264 192.234 61.2729 190.967 61.8813 190.003C62.5151 189.065 63.8079 188.812 64.7459 189.445C65.7092 190.079 65.9627 191.347 65.329 192.31C64.9234 192.893 64.2896 193.223 63.6051 193.223C63.2249 193.223 62.8193 193.121 62.4644 192.868ZM68.1429 184.35C67.2049 183.716 66.9261 182.423 67.5598 181.485C68.1936 180.522 69.4865 180.269 70.4245 180.902C71.3878 181.536 71.6413 182.829 71.0075 183.767C70.6019 184.375 69.9428 184.68 69.2837 184.68C68.9034 184.68 68.4978 184.578 68.1429 184.35ZM73.8215 175.807C72.8581 175.173 72.6046 173.906 73.2384 172.942C73.8722 172.004 75.1397 171.751 76.103 172.384C77.041 172.993 77.3199 174.286 76.6861 175.249C76.2805 175.832 75.6214 176.162 74.9622 176.162C74.5566 176.162 74.1764 176.035 73.8215 175.807Z" fill="url(#paint6_radial_1_599)"/>
<path d="M152.992 56.7358C152.054 56.1274 151.8 54.8345 152.434 53.8965C153.068 52.9332 154.335 52.6797 155.299 53.3134C156.237 53.9472 156.49 55.2148 155.856 56.1781C155.476 56.7611 154.817 57.0907 154.133 57.0907C153.752 57.0907 153.347 56.9893 152.992 56.7358ZM158.67 48.218C157.732 47.5842 157.479 46.2913 158.113 45.3533C158.721 44.39 160.014 44.1365 160.952 44.7703C161.915 45.404 162.169 46.6969 161.535 47.6349C161.129 48.2433 160.496 48.5475 159.811 48.5475C159.431 48.5475 159.025 48.4461 158.67 48.218ZM164.349 39.6748C163.411 39.041 163.132 37.7735 163.766 36.8101C164.4 35.8722 165.692 35.6187 166.63 36.2524C167.594 36.8862 167.847 38.1537 167.213 39.1171C166.808 39.7001 166.149 40.0297 165.49 40.0297C165.084 40.0297 164.704 39.9029 164.349 39.6748ZM170.027 31.1569C169.064 30.5232 168.811 29.2303 169.444 28.2923C170.078 27.329 171.371 27.0755 172.309 27.7092C173.247 28.343 173.526 29.6106 172.892 30.5739C172.486 31.1569 171.827 31.4865 171.168 31.4865C170.763 31.4865 170.382 31.3851 170.027 31.1569ZM175.681 22.6138C174.743 21.98 174.489 20.7125 175.123 19.7491C175.757 18.8112 177.024 18.5576 177.988 19.1914C178.925 19.7998 179.179 21.0927 178.545 22.0307C178.165 22.6391 177.506 22.9687 176.821 22.9687C176.441 22.9687 176.036 22.8419 175.681 22.6138Z" fill="url(#paint7_radial_1_599)"/>
<path d="M33.7921 195.808C32.9809 194.996 32.9809 193.703 33.7921 192.892C34.6034 192.081 35.8963 192.081 36.7075 192.892C37.5187 193.703 37.5187 195.022 36.7075 195.833C36.3019 196.239 35.7695 196.441 35.2371 196.441C34.7048 196.441 34.1724 196.239 33.7668 195.833L33.7921 195.808ZM41.0171 188.532C40.2059 187.746 40.2059 186.428 41.0171 185.617C41.803 184.805 43.1212 184.805 43.9324 185.617C44.7436 186.402 44.7436 187.721 43.9324 188.532C43.5268 188.938 42.9944 189.14 42.4874 189.14C41.9551 189.14 41.4227 188.938 41.0171 188.532ZM48.242 181.282C47.4308 180.47 47.4308 179.178 48.242 178.341C49.0533 177.555 50.3715 177.555 51.1827 178.341C51.9939 179.152 51.9939 180.445 51.1827 181.256C50.7771 181.662 50.2447 181.865 49.7124 181.865C49.18 181.865 48.673 181.662 48.2674 181.282H48.242ZM55.467 174.006C54.6558 173.195 54.6558 171.902 55.467 171.091C56.2782 170.279 57.5964 170.279 58.3823 171.091C59.1935 171.877 59.1935 173.195 58.3823 174.006C57.9767 174.412 57.4443 174.614 56.912 174.614C56.3796 174.614 55.8472 174.412 55.467 174.006ZM62.6666 166.756C61.8807 165.944 61.8554 164.626 62.6666 163.815C63.4778 163.004 64.7707 163.004 65.5819 163.815C66.3931 164.626 66.3931 165.919 65.5819 166.73C65.1763 167.136 64.6439 167.339 64.1116 167.339C63.5792 167.339 63.0468 167.136 62.6412 166.756H62.6666Z" fill="url(#paint8_radial_1_599)"/>
<path d="M163.513 65.3035C162.702 64.4923 162.702 63.1994 163.513 62.3882C164.324 61.5769 165.617 61.5769 166.428 62.3882C167.24 63.174 167.24 64.4923 166.428 65.3035C166.023 65.7091 165.516 65.9119 164.983 65.9119C164.451 65.9119 163.919 65.7091 163.513 65.3035ZM170.738 58.0278C169.927 57.242 169.927 55.9237 170.738 55.1125C171.549 54.3266 172.867 54.3013 173.679 55.1125C174.464 55.9237 174.49 57.2166 173.679 58.0278C173.273 58.4335 172.741 58.6363 172.234 58.6363C171.701 58.6363 171.169 58.4335 170.763 58.0278H170.738ZM177.963 50.7775C177.152 49.9663 177.152 48.6734 177.963 47.8622C178.774 47.051 180.067 47.051 180.878 47.8622C181.689 48.6734 181.715 49.9917 180.878 50.7775C180.473 51.2085 179.94 51.4113 179.408 51.4113C178.875 51.4113 178.368 51.2085 177.963 50.8029V50.7775ZM185.188 43.5019C184.377 42.716 184.351 41.3978 185.188 40.5866C185.999 39.7754 187.292 39.7754 188.103 40.5866C188.914 41.3724 188.914 42.6907 188.103 43.5019C187.698 43.9075 187.165 44.1103 186.633 44.1103C186.1 44.1103 185.568 43.9075 185.188 43.5019ZM192.387 36.2516C191.576 35.4404 191.576 34.1222 192.387 33.3363C193.199 32.5251 194.492 32.5251 195.303 33.3363C196.114 34.1475 196.114 35.4404 195.303 36.2516C194.897 36.6572 194.365 36.86 193.832 36.86C193.3 36.86 192.768 36.6572 192.362 36.277L192.387 36.2516Z" fill="url(#paint9_radial_1_599)"/>
<path d="M19.5445 178.569C18.9107 177.606 19.1642 176.338 20.1022 175.679C21.0401 175.045 22.333 175.299 22.9668 176.237C23.6006 177.2 23.3471 178.468 22.4091 179.127C22.0542 179.355 21.6486 179.456 21.2683 179.456C20.5838 179.456 19.9501 179.152 19.5445 178.569ZM28.0369 172.84C27.4032 171.877 27.6567 170.609 28.5946 169.975C29.5326 169.316 30.8255 169.57 31.4593 170.533C32.093 171.471 31.8395 172.764 30.9016 173.398C30.5466 173.626 30.141 173.753 29.7608 173.753C29.0763 173.753 28.4425 173.423 28.0369 172.84ZM36.5294 167.111C35.8956 166.173 36.1492 164.88 37.0871 164.246C38.0251 163.612 39.318 163.866 39.9518 164.804C40.5855 165.742 40.332 167.035 39.394 167.668C39.0391 167.897 38.6335 168.023 38.2533 168.023C37.5941 168.023 36.935 167.694 36.5294 167.111ZM45.0219 161.381C44.3881 160.443 44.6416 159.151 45.5796 158.517C46.5429 157.883 47.8105 158.137 48.4442 159.074C49.078 160.012 48.8245 161.305 47.8865 161.939C47.5316 162.193 47.126 162.294 46.7457 162.294C46.0866 162.294 45.4275 161.99 45.0219 161.381ZM53.5144 155.652C52.8806 154.714 53.1341 153.421 54.0721 152.787C55.0354 152.154 56.3029 152.407 56.9367 153.345C57.5705 154.309 57.3423 155.576 56.379 156.21C56.0241 156.463 55.6185 156.565 55.2382 156.565C54.5791 156.565 53.92 156.261 53.5144 155.652Z" fill="url(#paint10_radial_1_599)"/>
<path d="M172.156 75.7721C171.522 74.8088 171.776 73.5412 172.714 72.9075C173.652 72.2483 174.945 72.5018 175.578 73.4652C176.212 74.4031 175.959 75.6707 175.021 76.3298C174.666 76.558 174.26 76.6847 173.88 76.6847C173.221 76.6847 172.562 76.3552 172.156 75.7721ZM180.649 70.0428C180.015 69.1049 180.268 67.812 181.206 67.1782C182.17 66.5444 183.437 66.7979 184.071 67.7359C184.705 68.6739 184.451 69.9668 183.513 70.6005C183.158 70.8287 182.753 70.9555 182.372 70.9555C181.713 70.9555 181.054 70.6259 180.649 70.0428ZM189.141 64.3136C188.507 63.3756 188.761 62.0827 189.699 61.4489C190.662 60.8152 191.93 61.0687 192.563 62.0067C193.197 62.9446 192.969 64.2375 192.006 64.8713C191.651 65.1248 191.245 65.2262 190.865 65.2262C190.206 65.2262 189.547 64.8966 189.141 64.3136ZM197.634 58.5843C197 57.6463 197.253 56.3535 198.191 55.7197C199.155 55.0859 200.422 55.3394 201.056 56.2774C201.715 57.2407 201.461 58.5083 200.498 59.142C200.143 59.3955 199.763 59.4969 199.357 59.4969C198.698 59.4969 198.039 59.1927 197.634 58.5843ZM206.126 52.8551C205.492 51.9171 205.746 50.6496 206.684 49.9904C207.647 49.3567 208.915 49.6102 209.548 50.5481C210.207 51.5115 209.954 52.779 208.991 53.4128C208.636 53.6663 208.255 53.7677 207.85 53.7677C207.191 53.7677 206.532 53.4635 206.126 52.8551Z" fill="url(#paint11_radial_1_599)"/>
<path d="M8.924 158.898C8.46768 157.833 8.9747 156.642 10.0141 156.185C11.0788 155.754 12.2703 156.236 12.7266 157.301C13.1576 158.34 12.6759 159.557 11.6112 160.013C11.3577 160.115 11.0788 160.165 10.8253 160.165C10.0141 160.165 9.25356 159.684 8.924 158.898ZM18.3545 154.943C17.9235 153.878 18.4052 152.662 19.4699 152.231C20.5093 151.774 21.7261 152.281 22.1571 153.346C22.6134 154.385 22.1064 155.602 21.067 156.033C20.8135 156.16 20.5346 156.211 20.2558 156.211C19.4699 156.211 18.684 155.729 18.3545 154.943ZM27.8103 150.963C27.354 149.924 27.861 148.707 28.9003 148.276C29.9651 147.82 31.1566 148.327 31.6129 149.366C32.0438 150.431 31.5622 151.647 30.4974 152.078C30.2439 152.18 29.9651 152.231 29.7116 152.231C28.9003 152.231 28.1398 151.749 27.8103 150.963ZM37.2407 147.008C36.8098 145.969 37.2914 144.752 38.3561 144.296C39.3955 143.865 40.6124 144.346 41.0433 145.411C41.4996 146.451 40.9926 147.667 39.9532 148.124C39.6997 148.225 39.4209 148.276 39.142 148.276C38.3561 148.276 37.5703 147.794 37.2407 147.008ZM46.6965 143.054C46.2402 141.989 46.7472 140.797 47.7866 140.341C48.8513 139.91 50.0428 140.392 50.4991 141.457C50.9301 142.496 50.4484 143.713 49.3837 144.144C49.1302 144.27 48.8513 144.321 48.5978 144.321C47.7866 144.321 47.0261 143.839 46.6965 143.054Z" fill="url(#paint12_radial_1_599)"/>
<path d="M178.597 87.6872C178.14 86.6478 178.647 85.4309 179.687 85C180.751 84.5437 181.968 85.0253 182.399 86.0901C182.83 87.1294 182.349 88.3463 181.284 88.8026C181.03 88.904 180.751 88.9547 180.498 88.9547C179.687 88.9547 178.926 88.473 178.597 87.6872ZM188.052 83.7325C187.596 82.6677 188.103 81.4509 189.143 81.0199C190.207 80.589 191.399 81.0706 191.855 82.1354C192.286 83.1747 191.779 84.3916 190.74 84.8225C190.486 84.9493 190.207 85 189.954 85C189.143 85 188.357 84.5183 188.052 83.7325ZM197.483 79.7524C197.052 78.713 197.534 77.4962 198.598 77.0652C199.638 76.6089 200.855 77.1159 201.286 78.1553C201.742 79.22 201.235 80.4115 200.195 80.8678C199.917 80.9692 199.663 81.0199 199.384 81.0199C198.573 81.0199 197.812 80.5383 197.483 79.7524ZM206.939 75.7977C206.482 74.733 206.989 73.5415 208.029 73.0852C209.094 72.6542 210.285 73.1359 210.741 74.2006C211.172 75.24 210.691 76.4568 209.626 76.8878C209.372 77.0145 209.094 77.0652 208.84 77.0652C208.029 77.0652 207.268 76.5836 206.939 75.7977ZM216.369 71.8176C215.938 70.7782 216.445 69.5614 217.485 69.1305C218.549 68.6741 219.741 69.1812 220.197 70.2205C220.628 71.2853 220.121 72.5021 219.082 72.9331C218.828 73.0345 218.549 73.0852 218.27 73.0852C217.485 73.0852 216.724 72.6288 216.369 71.8176Z" fill="url(#paint13_radial_1_599)"/>
<path d="M2.33266 137.528C2.1045 136.387 2.81432 135.297 3.92975 135.069C5.04518 134.841 6.13526 135.576 6.36342 136.691C6.59157 137.807 5.88175 138.897 4.76632 139.125C4.61422 139.15 4.48747 139.176 4.33536 139.176C3.37204 139.176 2.51011 138.491 2.33266 137.528ZM12.3462 135.474C12.118 134.359 12.8532 133.269 13.9686 133.015C15.0841 132.787 16.1741 133.522 16.4023 134.638C16.6304 135.753 15.9206 136.843 14.8052 137.071C14.6531 137.097 14.5263 137.122 14.3742 137.122C13.4109 137.122 12.549 136.438 12.3462 135.474ZM22.3851 133.421C22.1569 132.305 22.8921 131.215 24.0075 130.987C25.1229 130.759 26.213 131.469 26.4412 132.584C26.6693 133.7 25.9341 134.79 24.8187 135.018C24.8187 135.018 24.5399 135.069 24.4131 135.069C23.4498 135.069 22.5879 134.384 22.3851 133.421ZM32.4239 131.368C32.1958 130.252 32.9309 129.162 34.0464 128.934C35.1618 128.706 36.2519 129.416 36.48 130.531C36.7082 131.646 35.973 132.736 34.8576 132.965C34.8576 132.965 34.5787 133.015 34.452 133.015C33.4887 133.015 32.6267 132.331 32.4239 131.368ZM42.4628 129.314C42.2346 128.199 42.9698 127.109 44.0852 126.88C45.2007 126.652 46.2907 127.362 46.5189 128.478C46.7471 129.593 46.0119 130.708 44.8965 130.937C44.8965 130.937 44.6176 130.962 44.4909 130.962C43.5275 130.962 42.6656 130.303 42.4628 129.314Z" fill="url(#paint14_radial_1_599)"/>
<path d="M182.602 100.641C182.373 99.5251 183.083 98.4097 184.199 98.2068C185.314 97.9787 186.404 98.6885 186.632 99.8039C186.86 100.919 186.151 102.009 185.035 102.238C184.883 102.238 184.756 102.288 184.604 102.288C183.641 102.288 182.779 101.604 182.602 100.641ZM192.64 98.5871C192.387 97.4717 193.122 96.3816 194.238 96.1535C195.353 95.9253 196.443 96.6351 196.671 97.7505C196.899 98.866 196.19 99.956 195.074 100.184C194.922 100.184 194.795 100.235 194.643 100.235C193.705 100.235 192.818 99.5504 192.64 98.5871ZM202.679 96.5337C202.426 95.4183 203.161 94.3282 204.276 94.1C205.392 93.8719 206.482 94.5817 206.71 95.6971C206.938 96.8126 206.228 97.9026 205.113 98.1308C204.961 98.1562 204.834 98.1815 204.682 98.1815C203.719 98.1815 202.857 97.497 202.679 96.5337ZM212.693 94.4803C212.465 93.3649 213.2 92.2748 214.315 92.0466C215.431 91.8185 216.521 92.5283 216.749 93.6437C216.977 94.7845 216.242 95.8492 215.126 96.0774C215 96.1281 214.848 96.1281 214.721 96.1281C213.758 96.1281 212.896 95.469 212.693 94.4803ZM222.732 92.4269C222.504 91.3115 223.239 90.2214 224.354 89.9932C225.47 89.7651 226.56 90.4749 226.788 91.6157C227.016 92.7311 226.281 93.8212 225.165 94.0493C225.165 94.0493 224.886 94.0493 224.76 94.0493C223.796 94.0493 222.934 93.3902 222.732 92.4016V92.4269Z" fill="url(#paint15_radial_1_599)"/>
<path d="M0 115.268C0 114.127 0.912625 113.189 2.05341 113.189C3.19419 113.189 4.10681 114.102 4.13216 115.217C4.13216 116.383 3.21954 117.296 2.07876 117.321H2.05341C0.937975 117.321 0 116.383 0 115.268ZM10.2417 115.192C10.2417 114.051 11.1543 113.113 12.2951 113.113C13.4359 113.113 14.3738 114.026 14.3738 115.167C14.3738 116.307 13.4612 117.245 12.3204 117.245H12.2951C11.1797 117.245 10.2417 116.333 10.2417 115.192ZM20.4834 115.141C20.4834 114 21.396 113.062 22.5368 113.062C23.6775 113.037 24.6155 113.975 24.6155 115.116C24.6155 116.257 23.7029 117.169 22.5621 117.195H22.5368C21.4213 117.195 20.4834 116.257 20.4834 115.141ZM30.725 115.065C30.725 113.924 31.6377 112.986 32.7784 112.986C33.9192 112.986 34.8572 113.899 34.8572 115.04C34.8572 116.181 33.9446 117.119 32.8038 117.119H32.7784C31.663 117.119 30.725 116.206 30.725 115.065ZM40.9667 115.014C40.9667 113.874 41.8793 112.936 43.0201 112.936C44.1609 112.936 45.0989 113.848 45.0989 114.989C45.0989 116.13 44.1862 117.043 43.0455 117.068C41.9047 117.068 40.9921 116.13 40.9667 115.014Z" fill="url(#paint16_radial_1_599)"/>
<path d="M183.995 114.127C183.995 113.012 184.908 112.074 186.049 112.048C187.19 112.048 188.128 112.961 188.128 114.102C188.128 115.242 187.215 116.18 186.074 116.18C184.933 116.18 184.021 115.268 183.995 114.127ZM194.237 114.076C194.237 112.935 195.15 111.998 196.291 111.998C197.431 111.998 198.369 112.91 198.369 114.051C198.369 115.192 197.457 116.13 196.316 116.13H196.291C195.175 116.13 194.263 115.217 194.237 114.076ZM204.479 114C204.479 112.885 205.391 111.947 206.532 111.947C207.673 111.921 208.611 112.834 208.611 114C208.611 115.116 207.698 116.054 206.558 116.054C205.417 116.054 204.504 115.141 204.479 114ZM214.721 113.95C214.721 112.809 215.633 111.871 216.774 111.871C217.915 111.871 218.853 112.783 218.853 113.924C218.853 115.065 217.94 116.003 216.799 116.003C215.658 116.003 214.746 115.09 214.721 113.95ZM224.988 113.873C224.988 112.733 225.875 111.82 227.016 111.82C228.182 111.82 229.094 112.733 229.094 113.848C229.094 114.989 228.207 115.927 227.066 115.927H227.041C225.9 115.927 224.988 115.014 224.988 113.873Z" fill="url(#paint17_radial_1_599)"/>
<path d="M43.9327 103.126C42.7919 102.923 42.0568 101.833 42.2849 100.718C42.4877 99.6025 43.5778 98.8673 44.6932 99.0701C45.834 99.2983 46.5438 100.363 46.341 101.504C46.1382 102.467 45.2763 103.177 44.313 103.177C44.1862 103.177 44.0595 103.152 43.9327 103.126ZM33.8685 101.2C32.7277 100.971 32.0179 99.9067 32.2207 98.7912C32.4489 97.6505 33.5136 96.9153 34.629 97.1435C35.7444 97.3463 36.505 98.4363 36.2768 99.5518C36.074 100.54 35.2121 101.225 34.2487 101.225C34.2487 101.225 33.9952 101.225 33.8685 101.2ZM23.8043 99.2729C22.6635 99.0448 21.9537 97.9547 22.1565 96.8392C22.3846 95.7238 23.4494 94.9886 24.5648 95.2168C25.7056 95.4196 26.4407 96.5097 26.2126 97.6251C26.0351 98.6138 25.1479 99.2983 24.1845 99.2983C24.1845 99.2983 23.931 99.2983 23.8043 99.2983V99.2729ZM13.74 97.3209C12.6246 97.1181 11.8894 96.028 12.0923 94.9126C12.3204 93.7972 13.3851 93.062 14.5006 93.2648C15.6413 93.493 16.3765 94.583 16.1484 95.6985C15.9709 96.6871 15.109 97.3716 14.1203 97.3716C14.1203 97.3716 13.8668 97.3463 13.74 97.3209ZM3.67582 95.3943C2.56039 95.1915 1.82522 94.1014 2.02803 92.9859C2.25618 91.8705 3.32091 91.1353 4.46169 91.3382C5.57712 91.5663 6.31229 92.631 6.08414 93.7718C5.90668 94.7351 5.04476 95.445 4.05608 95.445C4.05608 95.445 3.80258 95.445 3.67582 95.3943Z" fill="url(#paint18_radial_1_599)"/>
<path d="M224.633 137.78C223.517 137.552 222.782 136.487 222.985 135.372C223.213 134.231 224.278 133.521 225.393 133.724C226.534 133.927 227.269 135.017 227.041 136.132C226.863 137.121 226.002 137.805 225.013 137.805C225.013 137.805 224.759 137.805 224.633 137.805V137.78ZM214.568 135.853C213.453 135.625 212.718 134.561 212.921 133.445C213.149 132.304 214.239 131.594 215.354 131.797C216.47 132 217.205 133.09 216.977 134.206C216.799 135.194 215.937 135.879 214.974 135.879C214.822 135.879 214.695 135.879 214.568 135.853ZM204.504 133.927C203.389 133.699 202.654 132.634 202.882 131.493C203.084 130.378 204.175 129.643 205.29 129.871C206.405 130.073 207.141 131.164 206.938 132.279C206.735 133.268 205.873 133.952 204.91 133.952C204.91 133.952 204.631 133.952 204.504 133.952V133.927ZM194.465 132C193.324 131.772 192.589 130.707 192.817 129.566C193.02 128.451 194.11 127.716 195.226 127.944C196.341 128.147 197.102 129.237 196.874 130.352C196.671 131.341 195.809 132.025 194.846 132.025C194.719 132.025 194.592 132.025 194.465 132ZM184.401 130.073C183.286 129.845 182.55 128.781 182.753 127.64C182.981 126.524 184.046 125.789 185.187 126.017C186.302 126.22 187.037 127.31 186.809 128.426C186.632 129.414 185.77 130.099 184.781 130.099C184.781 130.099 184.528 130.099 184.401 130.099V130.073Z" fill="url(#paint19_radial_1_599)"/>
<path d="M47.4815 89.6159C46.4168 89.1849 45.9098 87.9681 46.3408 86.9287C46.7717 85.864 47.9632 85.357 49.0279 85.7879C50.0927 86.2189 50.5997 87.4104 50.1687 88.4751C49.8392 89.2863 49.0786 89.768 48.2674 89.768C48.0139 89.768 47.7351 89.7173 47.4815 89.6159ZM38.0004 85.7626C36.9357 85.3316 36.4286 84.1401 36.8596 83.0754C37.2906 82.0107 38.4821 81.5037 39.5468 81.9346C40.5862 82.3656 41.0932 83.5824 40.6876 84.6218C40.358 85.433 39.5721 85.9147 38.7609 85.9147C38.5074 85.9147 38.2539 85.864 38.0004 85.7626ZM28.4939 81.9093C27.4291 81.5036 26.9221 80.2868 27.3531 79.2221C27.7841 78.1827 29.0009 77.6503 30.0403 78.0813C31.105 78.5123 31.612 79.7291 31.1811 80.7685C30.8515 81.5797 30.091 82.0614 29.2798 82.0614C29.0009 82.0614 28.7474 82.0107 28.4939 81.9093ZM18.9874 78.0813C17.948 77.6503 17.441 76.4335 17.8719 75.3941C18.2776 74.3294 19.4944 73.8224 20.5591 74.2534C21.5985 74.659 22.1309 75.8758 21.6999 76.9405C21.3703 77.7264 20.5845 78.2334 19.7732 78.2334C19.5197 78.2334 19.2409 78.1827 18.9874 78.0813ZM9.50621 74.228C8.44148 73.797 7.93447 72.5802 8.36543 71.5408C8.79639 70.4761 9.98787 69.9691 11.0526 70.4C12.1173 70.831 12.6243 72.0225 12.1934 73.0872C11.8638 73.8984 11.1033 74.3801 10.2921 74.3801C10.0132 74.3801 9.75972 74.3294 9.50621 74.228Z" fill="url(#paint20_radial_1_599)"/>
<path d="M218.016 158.718C216.977 158.288 216.444 157.096 216.875 156.031C217.306 154.967 218.498 154.46 219.563 154.891C220.627 155.322 221.134 156.538 220.703 157.578C220.374 158.389 219.613 158.871 218.802 158.871C218.549 158.871 218.27 158.82 218.016 158.718ZM208.535 154.891C207.47 154.434 206.963 153.243 207.394 152.178C207.8 151.139 209.017 150.606 210.081 151.037C211.121 151.468 211.628 152.685 211.222 153.724C210.893 154.536 210.107 155.017 209.296 155.017C209.042 155.017 208.789 155.017 208.535 154.891ZM199.029 151.037C197.964 150.606 197.457 149.389 197.888 148.35C198.319 147.285 199.536 146.778 200.575 147.209C201.64 147.64 202.147 148.832 201.716 149.896C201.386 150.682 200.626 151.189 199.814 151.189C199.561 151.189 199.282 151.139 199.029 151.037ZM189.522 147.184C188.483 146.753 187.976 145.561 188.407 144.497C188.838 143.432 190.029 142.925 191.094 143.356C192.159 143.787 192.666 144.978 192.235 146.043C191.905 146.854 191.119 147.336 190.308 147.336C190.054 147.336 189.801 147.285 189.522 147.184ZM180.041 143.331C178.976 142.9 178.469 141.708 178.9 140.643C179.331 139.579 180.548 139.072 181.587 139.503C182.652 139.934 183.159 141.15 182.728 142.19C182.398 143.001 181.638 143.483 180.827 143.483C180.548 143.483 180.294 143.432 180.041 143.331Z" fill="url(#paint21_radial_1_599)"/>
<path d="M53.6179 77.0654C52.6799 76.457 52.401 75.1641 53.0348 74.2262C53.6432 73.2628 54.9361 73.0093 55.8994 73.6178C56.8374 74.2515 57.1163 75.5191 56.4825 76.4824C56.0769 77.0908 55.4178 77.4204 54.7586 77.4204C54.353 77.4204 53.9728 77.2936 53.6179 77.0654ZM45.0493 71.4376C44.1114 70.8292 43.8325 69.5363 44.4663 68.5983C45.0747 67.635 46.3676 67.3815 47.3309 67.9899C48.2689 68.6237 48.5477 69.8912 47.914 70.8545C47.5084 71.4629 46.8492 71.7925 46.1901 71.7925C45.7845 71.7925 45.4042 71.6658 45.0493 71.4376ZM36.4808 65.8351C35.5428 65.2013 35.264 63.9338 35.8977 62.9705C36.5315 62.0071 37.799 61.7536 38.7624 62.3874C39.7003 62.9958 39.9792 64.2887 39.3454 65.2267C38.9398 65.8351 38.2807 66.1646 37.6216 66.1646C37.2413 66.1646 36.8357 66.0632 36.4808 65.8351ZM27.9123 60.2072C26.9743 59.5735 26.6954 58.3059 27.3292 57.3426C27.963 56.3793 29.2305 56.1258 30.1938 56.7595C31.1318 57.368 31.4107 58.6608 30.7769 59.5988C30.3966 60.2072 29.7122 60.5368 29.0531 60.5368C28.6728 60.5368 28.2672 60.4354 27.9123 60.2072ZM19.3437 54.5794C18.4058 53.9456 18.1523 52.6781 18.7607 51.7148C19.3944 50.7768 20.662 50.4979 21.6253 51.1317C22.5886 51.7655 22.8421 53.033 22.2084 53.9963C21.8281 54.6047 21.169 54.9343 20.4845 54.9343C20.1043 54.9343 19.6987 54.8075 19.3437 54.5794Z" fill="url(#paint22_radial_1_599)"/>
<path d="M207.47 177.987C206.507 177.378 206.228 176.086 206.862 175.122C207.496 174.184 208.763 173.905 209.727 174.539C210.665 175.173 210.943 176.44 210.31 177.404C209.929 178.012 209.27 178.342 208.586 178.342C208.206 178.342 207.8 178.215 207.47 177.987ZM198.902 172.384C197.939 171.751 197.66 170.458 198.293 169.52C198.927 168.556 200.195 168.303 201.158 168.911C202.121 169.545 202.375 170.838 201.741 171.776C201.361 172.384 200.702 172.714 200.017 172.714C199.637 172.714 199.231 172.612 198.902 172.384ZM190.333 166.756C189.37 166.123 189.091 164.855 189.725 163.892C190.359 162.954 191.626 162.675 192.59 163.309C193.528 163.917 193.806 165.21 193.198 166.173C192.792 166.756 192.133 167.086 191.449 167.086C191.068 167.086 190.688 166.985 190.333 166.756ZM181.765 161.129C180.801 160.52 180.548 159.227 181.156 158.289C181.79 157.326 183.058 157.047 184.021 157.681C184.984 158.315 185.238 159.582 184.629 160.546C184.224 161.154 183.565 161.484 182.88 161.484C182.5 161.484 182.12 161.357 181.765 161.129ZM173.196 155.526C172.233 154.892 171.979 153.625 172.588 152.661C173.222 151.698 174.514 151.445 175.452 152.078C176.416 152.687 176.669 153.98 176.036 154.918C175.655 155.526 174.996 155.856 174.312 155.856C173.931 155.856 173.551 155.754 173.196 155.526Z" fill="url(#paint23_radial_1_599)"/>
<path d="M62.0837 65.9371C61.2725 65.1259 61.2725 63.833 62.0837 63.0218C62.8696 62.2105 64.1878 62.1852 64.999 63.0218C65.8103 63.8076 65.8356 65.1259 64.999 65.9371C64.5934 66.3427 64.0611 66.5455 63.5287 66.5455C62.9963 66.5455 62.4893 66.368 62.0837 65.9624V65.9371ZM54.7827 58.7628C53.9461 57.9516 53.9461 56.6587 54.732 55.8475C55.5432 55.0363 56.8361 55.0109 57.6727 55.8475C58.4839 56.6334 58.4839 57.9516 57.6727 58.7628C57.2671 59.1684 56.7347 59.3712 56.2023 59.3712C55.67 59.3712 55.1376 59.1684 54.7574 58.7882L54.7827 58.7628ZM47.4564 51.5886C46.6451 50.7774 46.6198 49.4845 47.4564 48.6733C48.2676 47.8367 49.5605 47.8367 50.3717 48.6479C51.1829 49.4338 51.2083 50.752 50.3717 51.5632C49.9661 51.9688 49.4337 52.1717 48.9013 52.1717C48.3943 52.1717 47.862 51.9688 47.4564 51.5886ZM40.1554 44.4143C39.3441 43.6031 39.3188 42.3102 40.1554 41.499C40.9412 40.6878 42.2595 40.6624 43.0707 41.4737C43.8819 42.2595 43.8819 43.5524 43.0707 44.389C42.6651 44.7946 42.1327 44.9974 41.6003 44.9974C41.068 44.9974 40.561 44.7946 40.1554 44.4143ZM32.829 37.2147C32.0178 36.4289 32.0178 35.136 32.829 34.2994C33.6402 33.4882 34.9331 33.4882 35.7443 34.2994C36.5809 35.1106 36.5809 36.4035 35.7443 37.2147C35.3387 37.6457 34.8064 37.8485 34.274 37.8485C33.767 37.8485 33.2346 37.6457 32.829 37.2401V37.2147Z" fill="url(#paint24_radial_1_599)"/>
<path d="M193.375 194.847C192.564 194.036 192.539 192.743 193.375 191.906C194.161 191.095 195.479 191.095 196.291 191.881C197.102 192.692 197.127 193.985 196.291 194.822C195.885 195.227 195.353 195.43 194.82 195.43C194.288 195.43 193.781 195.227 193.375 194.847ZM186.049 187.647C185.238 186.861 185.238 185.543 186.049 184.732C186.86 183.921 188.153 183.921 188.99 184.707C189.801 185.518 189.801 186.811 188.99 187.622C188.584 188.053 188.052 188.256 187.519 188.256C186.987 188.256 186.454 188.053 186.049 187.647ZM178.748 180.473C177.937 179.687 177.937 178.369 178.748 177.558C179.534 176.746 180.852 176.746 181.663 177.532C182.474 178.344 182.5 179.636 181.663 180.448C181.258 180.879 180.725 181.081 180.193 181.081C179.686 181.081 179.153 180.879 178.748 180.473ZM171.447 173.299C170.61 172.513 170.61 171.195 171.396 170.383C172.207 169.572 173.5 169.572 174.337 170.383C175.148 171.195 175.148 172.488 174.337 173.299C173.931 173.704 173.399 173.933 172.867 173.933C172.334 173.933 171.802 173.73 171.422 173.324L171.447 173.299ZM164.12 166.125C163.309 165.339 163.309 164.02 164.12 163.209C164.932 162.398 166.225 162.398 167.036 163.209C167.872 164.02 167.872 165.313 167.036 166.125C166.63 166.53 166.098 166.758 165.565 166.758C165.058 166.758 164.526 166.555 164.12 166.15V166.125Z" fill="url(#paint25_radial_1_599)"/>
<path d="M72.5283 56.6583C71.8945 55.7203 72.148 54.4528 73.086 53.7936C74.024 53.1599 75.2915 53.388 75.9506 54.3513C76.5844 55.2893 76.3562 56.5569 75.4183 57.216C75.038 57.4441 74.6324 57.5709 74.2521 57.5709C73.593 57.5709 72.9339 57.2667 72.5283 56.6583ZM66.7483 48.2165C66.1146 47.2785 66.3427 45.9856 67.306 45.3265C68.244 44.6927 69.5369 44.9462 70.1707 45.8842C70.8044 46.8222 70.5763 48.0897 69.6129 48.7488C69.258 49.0023 68.8778 49.1038 68.4722 49.1038C67.813 49.1038 67.1539 48.7995 66.7483 48.2165ZM60.9684 39.7493C60.3346 38.8114 60.5627 37.5185 61.5261 36.8847C62.4641 36.2256 63.7316 36.4791 64.3907 37.4171C65.0245 38.3551 64.7963 39.6479 63.8583 40.2817C63.5034 40.5352 63.0978 40.6366 62.6922 40.6366C62.0331 40.6366 61.374 40.3324 60.9684 39.7493ZM55.1884 31.2822C54.5546 30.3442 54.8081 29.0514 55.7461 28.4176C56.6841 27.7838 57.977 28.012 58.6107 28.95C59.2445 29.8879 59.0164 31.1808 58.0784 31.8146C57.7235 32.0681 57.3179 32.1948 56.9123 32.1948C56.2531 32.1948 55.594 31.8653 55.1884 31.2822ZM49.4338 22.8151C48.7747 21.8771 49.0282 20.6096 49.9662 19.9505C50.9041 19.3167 52.197 19.5449 52.8308 20.5082C53.4646 21.4462 53.2364 22.7137 52.2984 23.3728C51.9435 23.601 51.5379 23.7277 51.1323 23.7277C50.4732 23.7277 49.8141 23.4235 49.4338 22.8151Z" fill="url(#paint26_radial_1_599)"/>
<path d="M176.263 208.61C175.629 207.672 175.882 206.404 176.82 205.745C177.758 205.111 179.026 205.34 179.685 206.278C180.319 207.241 180.09 208.508 179.152 209.168C178.772 209.396 178.367 209.522 177.986 209.522C177.327 209.522 176.668 209.218 176.263 208.61ZM170.483 200.168C169.849 199.23 170.077 197.937 171.04 197.303C171.978 196.644 173.246 196.898 173.905 197.836C174.539 198.774 174.311 200.067 173.347 200.7C172.992 200.954 172.612 201.055 172.206 201.055C171.547 201.055 170.888 200.751 170.483 200.168ZM164.703 191.701C164.069 190.763 164.297 189.47 165.26 188.836C166.198 188.177 167.491 188.431 168.125 189.369C168.759 190.307 168.531 191.6 167.567 192.233C167.238 192.487 166.807 192.588 166.426 192.588C165.767 192.588 165.108 192.284 164.703 191.701ZM158.923 183.234C158.289 182.296 158.542 181.028 159.48 180.369C160.418 179.735 161.711 179.964 162.345 180.902C162.979 181.865 162.751 183.132 161.813 183.792C161.432 184.02 161.027 184.146 160.646 184.146C159.987 184.146 159.328 183.817 158.923 183.234ZM153.143 174.792C152.509 173.829 152.762 172.561 153.7 171.902C154.638 171.268 155.931 171.522 156.565 172.46C157.199 173.398 156.971 174.665 156.033 175.324C155.678 175.553 155.272 175.679 154.867 175.679C154.207 175.679 153.548 175.375 153.143 174.792Z" fill="url(#paint27_radial_1_599)"/>
<path d="M84.5701 49.5853C84.1138 48.5459 84.6208 47.3291 85.6602 46.8727C86.6996 46.4164 87.9164 46.9235 88.3727 47.9628C88.829 49.0022 88.322 50.219 87.2826 50.6754C87.0291 50.7768 86.7503 50.8528 86.4714 50.8528C85.6855 50.8528 84.8997 50.3711 84.5701 49.5853ZM80.5647 40.1802C80.1084 39.1154 80.5647 37.8986 81.6294 37.4676C82.6941 37.0113 83.911 37.493 84.3419 38.5577C84.7983 39.5971 84.3166 40.8139 83.2519 41.2449C82.9984 41.3717 82.7195 41.4223 82.4406 41.4223C81.6548 41.4223 80.8942 40.9407 80.5647 40.1802ZM76.5339 30.7497C76.0776 29.7103 76.5846 28.4935 77.624 28.0372C78.6634 27.6062 79.8802 28.0879 80.3365 29.1273C80.7675 30.1666 80.2858 31.3835 79.2464 31.8398C78.9676 31.9412 78.7141 31.9919 78.4352 31.9919C77.624 31.9919 76.8635 31.5356 76.5339 30.7497ZM72.5032 21.3193C72.0722 20.2799 72.5539 19.063 73.5932 18.6321C74.658 18.1758 75.8495 18.6321 76.3058 19.6968C76.7621 20.7615 76.3058 21.9784 75.2157 22.4347C74.9622 22.5361 74.6833 22.5868 74.4045 22.5868C73.6186 22.5868 72.8581 22.1051 72.5032 21.3193ZM68.4978 11.9142C68.0414 10.8748 68.4978 9.65794 69.5878 9.20163C70.6272 8.74532 71.844 9.25233 72.3004 10.2917C72.7313 11.3311 72.2497 12.5479 71.2103 13.0042C70.9314 13.1056 70.6526 13.1817 70.3991 13.1817C69.5878 13.1817 68.8273 12.7 68.4978 11.9142Z" fill="url(#paint28_radial_1_599)"/>
<path d="M156.819 218.829C156.363 217.764 156.819 216.573 157.909 216.116C158.949 215.66 160.165 216.167 160.622 217.206C161.053 218.246 160.571 219.463 159.532 219.919C159.253 220.02 158.999 220.071 158.72 220.071C157.909 220.071 157.149 219.615 156.819 218.829ZM152.788 209.398C152.357 208.359 152.839 207.142 153.878 206.686C154.918 206.255 156.135 206.736 156.591 207.776C157.047 208.841 156.54 210.032 155.501 210.488C155.247 210.59 154.969 210.666 154.69 210.666C153.879 210.666 153.118 210.184 152.788 209.398ZM148.783 199.993C148.327 198.928 148.783 197.712 149.873 197.281C150.912 196.824 152.129 197.306 152.56 198.371C153.017 199.41 152.56 200.627 151.47 201.058C151.217 201.185 150.938 201.235 150.659 201.235C149.873 201.235 149.113 200.754 148.783 199.993ZM144.752 190.563C144.296 189.523 144.803 188.307 145.842 187.85C146.882 187.394 148.099 187.901 148.555 188.94C148.986 189.98 148.504 191.196 147.465 191.653C147.186 191.754 146.932 191.805 146.654 191.805C145.842 191.805 145.082 191.349 144.752 190.563ZM140.721 181.132C140.291 180.093 140.772 178.876 141.812 178.42C142.876 177.989 144.093 178.47 144.524 179.51C144.98 180.575 144.524 181.766 143.434 182.222C143.181 182.349 142.902 182.4 142.623 182.4C141.837 182.4 141.076 181.918 140.721 181.132Z" fill="url(#paint29_radial_1_599)"/>
<path d="M97.777 45.0208C97.5235 43.9054 98.2587 42.79 99.3741 42.5618C100.49 42.3336 101.58 43.0435 101.808 44.1589C102.036 45.2743 101.326 46.3644 100.211 46.6179C100.211 46.6179 99.9319 46.6179 99.7797 46.6179C98.8418 46.6179 97.9799 45.9588 97.777 44.9955V45.0208ZM95.6476 34.9819C95.4194 33.8665 96.1292 32.7764 97.2447 32.5483C98.3601 32.2948 99.4502 33.0299 99.7037 34.12C99.9318 35.2608 99.222 36.3509 98.1066 36.579C97.9545 36.579 97.8277 36.6297 97.6756 36.6297C96.7123 36.6297 95.8504 35.9706 95.6476 34.9819ZM93.5435 24.9684C93.3153 23.853 94.0251 22.7629 95.1406 22.5094C96.256 22.2813 97.3461 22.9911 97.5742 24.1065C97.8277 25.2219 97.0926 26.312 95.9771 26.5655C95.8504 26.5909 95.6983 26.5909 95.5462 26.5909C94.6082 26.5909 93.7463 25.9318 93.5435 24.9684ZM91.4394 14.9296C91.1859 13.8141 91.921 12.724 93.0111 12.4959C94.1519 12.2677 95.242 12.9776 95.4701 14.093C95.6983 15.2084 94.9885 16.2985 93.873 16.5266C93.7209 16.5773 93.5942 16.5773 93.4421 16.5773C92.5041 16.5773 91.6422 15.9182 91.4394 14.9296ZM89.3099 4.91603C89.0818 3.8006 89.7916 2.71052 90.907 2.48237C92.0224 2.22886 93.1125 2.93868 93.3407 4.05411C93.5942 5.16954 92.8844 6.25962 91.7689 6.51313C91.6168 6.53848 91.4647 6.56383 91.338 6.56383C90.3746 6.56383 89.5127 5.87936 89.3099 4.91603Z" fill="url(#paint30_radial_1_599)"/>
<path d="M135.752 225.064C135.524 223.949 136.234 222.833 137.35 222.605C138.465 222.377 139.555 223.087 139.783 224.202C140.011 225.317 139.302 226.408 138.186 226.636C138.186 226.636 137.907 226.686 137.755 226.686C136.817 226.686 135.955 226.027 135.752 225.064ZM133.623 215.025C133.395 213.91 134.105 212.82 135.22 212.591C136.336 212.338 137.451 213.073 137.679 214.188C137.907 215.304 137.197 216.394 136.082 216.622C135.93 216.622 135.803 216.673 135.651 216.673C134.688 216.673 133.851 216.014 133.623 215.025ZM131.519 205.012C131.291 203.896 132.001 202.806 133.116 202.553C134.231 202.324 135.322 203.034 135.55 204.15C135.803 205.265 135.093 206.355 133.953 206.609C133.953 206.609 133.674 206.609 133.522 206.609C132.584 206.609 131.722 205.95 131.519 204.986V205.012ZM129.415 194.973C129.161 193.857 129.871 192.767 131.012 192.539C132.102 192.311 133.217 193.021 133.446 194.136C133.674 195.252 132.964 196.342 131.848 196.57C131.848 196.57 131.57 196.62 131.417 196.62C130.48 196.62 129.618 195.961 129.415 194.973ZM127.285 184.959C127.057 183.844 127.767 182.754 128.882 182.525C129.998 182.272 131.088 183.007 131.341 184.123C131.57 185.238 130.86 186.328 129.744 186.556C129.592 186.582 129.44 186.607 129.313 186.607C128.35 186.607 127.488 185.922 127.285 184.959Z" fill="url(#paint31_radial_1_599)"/>
<defs>
<radialGradient id="paint0_radial_1_599" cx="0" cy="0" r="1" gradientUnits="userSpaceOnUse" gradientTransform="translate(114.547 114.559) rotate(90) scale(114.559 114.547)">
<stop offset="0.495192" stop-color="#BDEFB5"/>
<stop offset="1" stop-color="#222222"/>
</radialGradient>
<radialGradient id="paint1_radial_1_599" cx="0" cy="0" r="1" gradientUnits="userSpaceOnUse" gradientTransform="translate(114.547 114.559) rotate(90) scale(114.559 114.547)">
<stop offset="0.495192" stop-color="#BDEFB5"/>
<stop offset="1" stop-color="#222222"/>
</radialGradient>
<radialGradient id="paint2_radial_1_599" cx="0" cy="0" r="1" gradientUnits="userSpaceOnUse" gradientTransform="translate(114.547 114.559) rotate(90) scale(114.559 114.547)">
<stop offset="0.495192" stop-color="#BDEFB5"/>
<stop offset="1" stop-color="#222222"/>
</radialGradient>
<radialGradient id="paint3_radial_1_599" cx="0" cy="0" r="1" gradientUnits="userSpaceOnUse" gradientTransform="translate(114.547 114.559) rotate(90) scale(114.559 114.547)">
<stop offset="0.495192" stop-color="#BDEFB5"/>
<stop offset="1" stop-color="#222222"/>
</radialGradient>
<radialGradient id="paint4_radial_1_599" cx="0" cy="0" r="1" gradientUnits="userSpaceOnUse" gradientTransform="translate(114.547 114.559) rotate(90) scale(114.559 114.547)">
<stop offset="0.495192" stop-color="#BDEFB5"/>
<stop offset="1" stop-color="#222222"/>
</radialGradient>
<radialGradient id="paint5_radial_1_599" cx="0" cy="0" r="1" gradientUnits="userSpaceOnUse" gradientTransform="translate(114.547 114.559) rotate(90) scale(114.559 114.547)">
<stop offset="0.495192" stop-color="#BDEFB5"/>
<stop offset="1" stop-color="#222222"/>
</radialGradient>
<radialGradient id="paint6_radial_1_599" cx="0" cy="0" r="1" gradientUnits="userSpaceOnUse" gradientTransform="translate(114.547 114.559) rotate(90) scale(114.559 114.547)">
<stop offset="0.495192" stop-color="#BDEFB5"/>
<stop offset="1" stop-color="#222222"/>
</radialGradient>
<radialGradient id="paint7_radial_1_599" cx="0" cy="0" r="1" gradientUnits="userSpaceOnUse" gradientTransform="translate(114.547 114.559) rotate(90) scale(114.559 114.547)">
<stop offset="0.495192" stop-color="#BDEFB5"/>
<stop offset="1" stop-color="#222222"/>
</radialGradient>
<radialGradient id="paint8_radial_1_599" cx="0" cy="0" r="1" gradientUnits="userSpaceOnUse" gradientTransform="translate(114.547 114.559) rotate(90) scale(114.559 114.547)">
<stop offset="0.495192" stop-color="#BDEFB5"/>
<stop offset="1" stop-color="#222222"/>
</radialGradient>
<radialGradient id="paint9_radial_1_599" cx="0" cy="0" r="1" gradientUnits="userSpaceOnUse" gradientTransform="translate(114.547 114.559) rotate(90) scale(114.559 114.547)">
<stop offset="0.495192" stop-color="#BDEFB5"/>
<stop offset="1" stop-color="#222222"/>
</radialGradient>
<radialGradient id="paint10_radial_1_599" cx="0" cy="0" r="1" gradientUnits="userSpaceOnUse" gradientTransform="translate(114.547 114.559) rotate(90) scale(114.559 114.547)">
<stop offset="0.495192" stop-color="#BDEFB5"/>
<stop offset="1" stop-color="#222222"/>
</radialGradient>
<radialGradient id="paint11_radial_1_599" cx="0" cy="0" r="1" gradientUnits="userSpaceOnUse" gradientTransform="translate(114.547 114.559) rotate(90) scale(114.559 114.547)">
<stop offset="0.495192" stop-color="#BDEFB5"/>
<stop offset="1" stop-color="#222222"/>
</radialGradient>
<radialGradient id="paint12_radial_1_599" cx="0" cy="0" r="1" gradientUnits="userSpaceOnUse" gradientTransform="translate(114.547 114.559) rotate(90) scale(114.559 114.547)">
<stop offset="0.495192" stop-color="#BDEFB5"/>
<stop offset="1" stop-color="#222222"/>
</radialGradient>
<radialGradient id="paint13_radial_1_599" cx="0" cy="0" r="1" gradientUnits="userSpaceOnUse" gradientTransform="translate(114.547 114.559) rotate(90) scale(114.559 114.547)">
<stop offset="0.495192" stop-color="#BDEFB5"/>
<stop offset="1" stop-color="#222222"/>
</radialGradient>
<radialGradient id="paint14_radial_1_599" cx="0" cy="0" r="1" gradientUnits="userSpaceOnUse" gradientTransform="translate(114.547 114.559) rotate(90) scale(114.559 114.547)">
<stop offset="0.495192" stop-color="#BDEFB5"/>
<stop offset="1" stop-color="#222222"/>
</radialGradient>
<radialGradient id="paint15_radial_1_599" cx="0" cy="0" r="1" gradientUnits="userSpaceOnUse" gradientTransform="translate(114.547 114.559) rotate(90) scale(114.559 114.547)">
<stop offset="0.495192" stop-color="#BDEFB5"/>
<stop offset="1" stop-color="#222222"/>
</radialGradient>
<radialGradient id="paint16_radial_1_599" cx="0" cy="0" r="1" gradientUnits="userSpaceOnUse" gradientTransform="translate(114.547 114.559) rotate(90) scale(114.559 114.547)">
<stop offset="0.495192" stop-color="#BDEFB5"/>
<stop offset="1" stop-color="#222222"/>
</radialGradient>
<radialGradient id="paint17_radial_1_599" cx="0" cy="0" r="1" gradientUnits="userSpaceOnUse" gradientTransform="translate(114.547 114.559) rotate(90) scale(114.559 114.547)">
<stop offset="0.495192" stop-color="#BDEFB5"/>
<stop offset="1" stop-color="#222222"/>
</radialGradient>
<radialGradient id="paint18_radial_1_599" cx="0" cy="0" r="1" gradientUnits="userSpaceOnUse" gradientTransform="translate(114.547 114.559) rotate(90) scale(114.559 114.547)">
<stop offset="0.495192" stop-color="#BDEFB5"/>
<stop offset="1" stop-color="#222222"/>
</radialGradient>
<radialGradient id="paint19_radial_1_599" cx="0" cy="0" r="1" gradientUnits="userSpaceOnUse" gradientTransform="translate(114.547 114.559) rotate(90) scale(114.559 114.547)">
<stop offset="0.495192" stop-color="#BDEFB5"/>
<stop offset="1" stop-color="#222222"/>
</radialGradient>
<radialGradient id="paint20_radial_1_599" cx="0" cy="0" r="1" gradientUnits="userSpaceOnUse" gradientTransform="translate(114.547 114.559) rotate(90) scale(114.559 114.547)">
<stop offset="0.495192" stop-color="#BDEFB5"/>
<stop offset="1" stop-color="#222222"/>
</radialGradient>
<radialGradient id="paint21_radial_1_599" cx="0" cy="0" r="1" gradientUnits="userSpaceOnUse" gradientTransform="translate(114.547 114.559) rotate(90) scale(114.559 114.547)">
<stop offset="0.495192" stop-color="#BDEFB5"/>
<stop offset="1" stop-color="#222222"/>
</radialGradient>
<radialGradient id="paint22_radial_1_599" cx="0" cy="0" r="1" gradientUnits="userSpaceOnUse" gradientTransform="translate(114.547 114.559) rotate(90) scale(114.559 114.547)">
<stop offset="0.495192" stop-color="#BDEFB5"/>
<stop offset="1" stop-color="#222222"/>
</radialGradient>
<radialGradient id="paint23_radial_1_599" cx="0" cy="0" r="1" gradientUnits="userSpaceOnUse" gradientTransform="translate(114.547 114.559) rotate(90) scale(114.559 114.547)">
<stop offset="0.495192" stop-color="#BDEFB5"/>
<stop offset="1" stop-color="#222222"/>
</radialGradient>
<radialGradient id="paint24_radial_1_599" cx="0" cy="0" r="1" gradientUnits="userSpaceOnUse" gradientTransform="translate(114.547 114.559) rotate(90) scale(114.559 114.547)">
<stop offset="0.495192" stop-color="#BDEFB5"/>
<stop offset="1" stop-color="#222222"/>
</radialGradient>
<radialGradient id="paint25_radial_1_599" cx="0" cy="0" r="1" gradientUnits="userSpaceOnUse" gradientTransform="translate(114.547 114.559) rotate(90) scale(114.559 114.547)">
<stop offset="0.495192" stop-color="#BDEFB5"/>
<stop offset="1" stop-color="#222222"/>
</radialGradient>
<radialGradient id="paint26_radial_1_599" cx="0" cy="0" r="1" gradientUnits="userSpaceOnUse" gradientTransform="translate(114.547 114.559) rotate(90) scale(114.559 114.547)">
<stop offset="0.495192" stop-color="#BDEFB5"/>
<stop offset="1" stop-color="#222222"/>
</radialGradient>
<radialGradient id="paint27_radial_1_599" cx="0" cy="0" r="1" gradientUnits="userSpaceOnUse" gradientTransform="translate(114.547 114.559) rotate(90) scale(114.559 114.547)">
<stop offset="0.495192" stop-color="#BDEFB5"/>
<stop offset="1" stop-color="#222222"/>
</radialGradient>
<radialGradient id="paint28_radial_1_599" cx="0" cy="0" r="1" gradientUnits="userSpaceOnUse" gradientTransform="translate(114.547 114.559) rotate(90) scale(114.559 114.547)">
<stop offset="0.495192" stop-color="#BDEFB5"/>
<stop offset="1" stop-color="#222222"/>
</radialGradient>
<radialGradient id="paint29_radial_1_599" cx="0" cy="0" r="1" gradientUnits="userSpaceOnUse" gradientTransform="translate(114.547 114.559) rotate(90) scale(114.559 114.547)">
<stop offset="0.495192" stop-color="#BDEFB5"/>
<stop offset="1" stop-color="#222222"/>
</radialGradient>
<radialGradient id="paint30_radial_1_599" cx="0" cy="0" r="1" gradientUnits="userSpaceOnUse" gradientTransform="translate(114.547 114.559) rotate(90) scale(114.559 114.547)">
<stop offset="0.495192" stop-color="#BDEFB5"/>
<stop offset="1" stop-color="#222222"/>
</radialGradient>
<radialGradient id="paint31_radial_1_599" cx="0" cy="0" r="1" gradientUnits="userSpaceOnUse" gradientTransform="translate(114.547 114.559) rotate(90) scale(114.559 114.547)">
<stop offset="0.495192" stop-color="#BDEFB5"/>
<stop offset="1" stop-color="#222222"/>
</radialGradient>
</defs>
</svg>
