<svg width="88" height="88" viewBox="0 0 88 88" fill="none" xmlns="http://www.w3.org/2000/svg">
<g filter="url(#filter0_i_1_648)">
<circle cx="44" cy="44" r="40" fill="#FF0000"/>
</g>
<circle cx="44" cy="44" r="42" stroke="#CCCCCC" stroke-width="4"/>
<path d="M60.5614 52.896C59.9694 52.896 59.3214 52.88 58.6174 52.848C57.9134 52.816 57.2254 52.776 56.5534 52.728C55.8974 52.68 55.2974 52.624 54.7534 52.56V50.808C55.3294 50.856 55.9294 50.904 56.5534 50.952C57.1934 51 57.8094 51.04 58.4014 51.072C59.0094 51.104 59.5214 51.12 59.9374 51.12C60.7854 51.12 61.4654 51.088 61.9774 51.024C62.4894 50.944 62.9214 50.8 63.2734 50.592C63.5134 50.448 63.6894 50.256 63.8014 50.016C63.9134 49.776 63.9774 49.496 63.9934 49.176C64.0254 48.856 64.0414 48.512 64.0414 48.144C64.0414 47.6 64.0254 47.16 63.9934 46.824C63.9614 46.488 63.8734 46.232 63.7294 46.056C63.6014 45.864 63.3854 45.728 63.0814 45.648C62.7774 45.552 62.3694 45.48 61.8574 45.432L57.7534 44.976C56.9854 44.88 56.3694 44.72 55.9054 44.496C55.4414 44.256 55.0894 43.96 54.8494 43.608C54.6254 43.24 54.4734 42.808 54.3934 42.312C54.3134 41.8 54.2734 41.232 54.2734 40.608C54.2734 39.6 54.4014 38.792 54.6574 38.184C54.9294 37.576 55.3214 37.112 55.8334 36.792C56.3454 36.472 56.9614 36.264 57.6814 36.168C58.4174 36.056 59.2574 36 60.2014 36C60.8094 36 61.4334 36.016 62.0734 36.048C62.7134 36.08 63.3134 36.128 63.8734 36.192C64.4494 36.24 64.9214 36.304 65.2894 36.384V38.088C64.8734 38.024 64.3934 37.968 63.8494 37.92C63.3054 37.872 62.7454 37.84 62.1694 37.824C61.6094 37.792 61.0734 37.776 60.5614 37.776C59.6814 37.776 58.9694 37.816 58.4254 37.896C57.8814 37.976 57.4494 38.12 57.1294 38.328C56.7774 38.536 56.5534 38.832 56.4574 39.216C56.3774 39.584 56.3374 40.032 56.3374 40.56C56.3374 41.184 56.3774 41.672 56.4574 42.024C56.5534 42.36 56.7454 42.6 57.0334 42.744C57.3374 42.872 57.7854 42.968 58.3774 43.032L62.3854 43.488C62.9614 43.536 63.4654 43.616 63.8974 43.728C64.3454 43.824 64.7294 43.992 65.0494 44.232C65.3694 44.472 65.6094 44.816 65.7694 45.264C65.8654 45.488 65.9374 45.736 65.9854 46.008C66.0334 46.28 66.0654 46.584 66.0814 46.92C66.1134 47.24 66.1294 47.6 66.1294 48C66.1294 48.912 66.0414 49.672 65.8654 50.28C65.6894 50.872 65.4414 51.344 65.1214 51.696C64.8014 52.048 64.4094 52.312 63.9454 52.488C63.4814 52.664 62.9614 52.776 62.3854 52.824C61.8254 52.872 61.2174 52.896 60.5614 52.896Z" fill="#CCCCCC"/>
<path d="M44.0541 52.896C42.7741 52.896 41.7101 52.832 40.8621 52.704C40.0301 52.56 39.3661 52.312 38.8701 51.96C38.3901 51.608 38.0381 51.12 37.8141 50.496C37.5901 49.856 37.4461 49.048 37.3821 48.072C37.3181 47.08 37.2861 45.872 37.2861 44.448C37.2861 43.024 37.3181 41.824 37.3821 40.848C37.4461 39.856 37.5901 39.048 37.8141 38.424C38.0381 37.784 38.3901 37.288 38.8701 36.936C39.3661 36.584 40.0301 36.344 40.8621 36.216C41.7101 36.072 42.7741 36 44.0541 36C45.3341 36 46.3901 36.072 47.2221 36.216C48.0701 36.344 48.7341 36.584 49.2141 36.936C49.7101 37.288 50.0701 37.784 50.2941 38.424C50.5181 39.048 50.6621 39.856 50.7261 40.848C50.7901 41.824 50.8221 43.024 50.8221 44.448C50.8221 45.872 50.7901 47.08 50.7261 48.072C50.6621 49.048 50.5181 49.856 50.2941 50.496C50.0701 51.12 49.7101 51.608 49.2141 51.96C48.7341 52.312 48.0701 52.56 47.2221 52.704C46.3901 52.832 45.3341 52.896 44.0541 52.896ZM44.0541 51.12C44.9341 51.12 45.6621 51.096 46.2381 51.048C46.8141 50.984 47.2701 50.848 47.6061 50.64C47.9421 50.432 48.1981 50.096 48.3741 49.632C48.5501 49.152 48.6541 48.496 48.6861 47.664C48.7341 46.832 48.7581 45.76 48.7581 44.448C48.7581 43.136 48.7341 42.064 48.6861 41.232C48.6541 40.4 48.5501 39.752 48.3741 39.288C48.1981 38.808 47.9421 38.464 47.6061 38.256C47.2701 38.048 46.8141 37.92 46.2381 37.872C45.6621 37.808 44.9341 37.776 44.0541 37.776C43.1741 37.776 42.4461 37.808 41.8701 37.872C41.3101 37.92 40.8541 38.048 40.5021 38.256C40.1661 38.464 39.9101 38.808 39.7341 39.288C39.5741 39.752 39.4701 40.4 39.4221 41.232C39.3741 42.064 39.3501 43.136 39.3501 44.448C39.3501 45.76 39.3741 46.832 39.4221 47.664C39.4701 48.496 39.5741 49.152 39.7341 49.632C39.9101 50.096 40.1661 50.432 40.5021 50.64C40.8541 50.848 41.3101 50.984 41.8701 51.048C42.4461 51.096 43.1741 51.12 44.0541 51.12Z" fill="#CCCCCC"/>
<path d="M28.288 52.896C27.696 52.896 27.048 52.88 26.344 52.848C25.64 52.816 24.952 52.776 24.28 52.728C23.624 52.68 23.024 52.624 22.48 52.56V50.808C23.056 50.856 23.656 50.904 24.28 50.952C24.92 51 25.536 51.04 26.128 51.072C26.736 51.104 27.248 51.12 27.664 51.12C28.512 51.12 29.192 51.088 29.704 51.024C30.216 50.944 30.648 50.8 31 50.592C31.24 50.448 31.416 50.256 31.528 50.016C31.64 49.776 31.704 49.496 31.72 49.176C31.752 48.856 31.768 48.512 31.768 48.144C31.768 47.6 31.752 47.16 31.72 46.824C31.688 46.488 31.6 46.232 31.456 46.056C31.328 45.864 31.112 45.728 30.808 45.648C30.504 45.552 30.096 45.48 29.584 45.432L25.48 44.976C24.712 44.88 24.096 44.72 23.632 44.496C23.168 44.256 22.816 43.96 22.576 43.608C22.352 43.24 22.2 42.808 22.12 42.312C22.04 41.8 22 41.232 22 40.608C22 39.6 22.128 38.792 22.384 38.184C22.656 37.576 23.048 37.112 23.56 36.792C24.072 36.472 24.688 36.264 25.408 36.168C26.144 36.056 26.984 36 27.928 36C28.536 36 29.16 36.016 29.8 36.048C30.44 36.08 31.04 36.128 31.6 36.192C32.176 36.24 32.648 36.304 33.016 36.384V38.088C32.6 38.024 32.12 37.968 31.576 37.92C31.032 37.872 30.472 37.84 29.896 37.824C29.336 37.792 28.8 37.776 28.288 37.776C27.408 37.776 26.696 37.816 26.152 37.896C25.608 37.976 25.176 38.12 24.856 38.328C24.504 38.536 24.28 38.832 24.184 39.216C24.104 39.584 24.064 40.032 24.064 40.56C24.064 41.184 24.104 41.672 24.184 42.024C24.28 42.36 24.472 42.6 24.76 42.744C25.064 42.872 25.512 42.968 26.104 43.032L30.112 43.488C30.688 43.536 31.192 43.616 31.624 43.728C32.072 43.824 32.456 43.992 32.776 44.232C33.096 44.472 33.336 44.816 33.496 45.264C33.592 45.488 33.664 45.736 33.712 46.008C33.76 46.28 33.792 46.584 33.808 46.92C33.84 47.24 33.856 47.6 33.856 48C33.856 48.912 33.768 49.672 33.592 50.28C33.416 50.872 33.168 51.344 32.848 51.696C32.528 52.048 32.136 52.312 31.672 52.488C31.208 52.664 30.688 52.776 30.112 52.824C29.552 52.872 28.944 52.896 28.288 52.896Z" fill="#CCCCCC"/>
<defs>
<filter id="filter0_i_1_648" x="0" y="0" width="88" height="90" filterUnits="userSpaceOnUse" color-interpolation-filters="sRGB">
<feFlood flood-opacity="0" result="BackgroundImageFix"/>
<feBlend mode="normal" in="SourceGraphic" in2="BackgroundImageFix" result="shape"/>
<feColorMatrix in="SourceAlpha" type="matrix" values="0 0 0 0 0 0 0 0 0 0 0 0 0 0 0 0 0 0 127 0" result="hardAlpha"/>
<feOffset dy="2"/>
<feGaussianBlur stdDeviation="4"/>
<feComposite in2="hardAlpha" operator="arithmetic" k2="-1" k3="1"/>
<feColorMatrix type="matrix" values="0 0 0 0 1 0 0 0 0 1 0 0 0 0 1 0 0 0 0.25 0"/>
<feBlend mode="normal" in2="shape" result="effect1_innerShadow_1_648"/>
</filter>
</defs>
</svg>
