<svg width="26" height="26" viewBox="0 0 26 26" fill="none" xmlns="http://www.w3.org/2000/svg">
<path d="M6.75 12.75L11.8929 17.0357L18.75 8.46429M12.75 24.75C11.1741 24.75 9.61371 24.4396 8.1578 23.8366C6.70189 23.2335 5.37902 22.3496 4.26472 21.2353C3.15042 20.121 2.2665 18.7981 1.66345 17.3422C1.06039 15.8863 0.75 14.3259 0.75 12.75C0.75 11.1741 1.06039 9.61371 1.66345 8.1578C2.2665 6.70189 3.15042 5.37902 4.26472 4.26472C5.37902 3.15042 6.70189 2.2665 8.1578 1.66345C9.61371 1.06039 11.1741 0.75 12.75 0.75C15.9326 0.75 18.9848 2.01428 21.2353 4.26472C23.4857 6.51516 24.75 9.5674 24.75 12.75C24.75 15.9326 23.4857 18.9848 21.2353 21.2353C18.9848 23.4857 15.9326 24.75 12.75 24.75Z" stroke="black" stroke-width="1.5"/>
</svg>
