<svg width="20" height="20" viewBox="0 0 20 20" fill="none" xmlns="http://www.w3.org/2000/svg">
<path d="M7.49919 18.3334V14.7142C7.49919 14.0325 7.49919 13.6925 7.37252 13.3859C7.24585 13.08 7.00419 12.8392 6.52252 12.3567L3.82085 9.65502C3.57919 9.41335 3.45919 9.29335 3.39585 9.14085C3.33252 8.98752 3.33252 8.81669 3.33252 8.47669V8.33335C3.33252 7.54752 3.33252 7.15502 3.57669 6.91085C3.82085 6.66669 4.21335 6.66669 4.99919 6.66669H14.9992C15.785 6.66669 16.1775 6.66669 16.4217 6.91085C16.6659 7.15502 16.6659 7.54752 16.6659 8.33335V8.47669C16.6659 8.81669 16.6659 8.98752 16.6025 9.14085C16.5392 9.29335 16.4192 9.41419 16.1775 9.65502L13.4759 12.3567C12.9942 12.8392 12.7534 13.0792 12.6259 13.3859C12.4992 13.6925 12.4992 14.0325 12.4992 14.7142V18.3334M12.4992 13.3334H7.49919" stroke="white" stroke-width="1.5" stroke-linecap="round"/>
<path d="M9.99927 4.16669V1.66669" stroke="white" stroke-width="1.5" stroke-linecap="round"/>
<path d="M6.66593 4.16667L4.99927 2.5M13.3326 4.16667L14.9993 2.5" stroke="white" stroke-width="1.5" stroke-linecap="round"/>
<path d="M9.99927 15.8333V17.5" stroke="white" stroke-width="1.5" stroke-linecap="round"/>
</svg>
