<svg width="21" height="21" viewBox="0 0 21 21" fill="none" xmlns="http://www.w3.org/2000/svg">
<path d="M10.5 0.5V3.35714M10.5 17.6429V20.5M20.5 10.5H17.6429M3.35714 10.5H0.5M17.5705 3.42952L15.5505 5.44952M5.44857 15.5514L3.42857 17.5714M17.5705 17.5714L15.5505 15.5514M5.44857 5.44952L3.42857 3.42952M6.21429 10.5C6.21429 11.6366 6.66581 12.7267 7.46954 13.5305C8.27327 14.3342 9.36336 14.7857 10.5 14.7857C11.6366 14.7857 12.7267 14.3342 13.5305 13.5305C14.3342 12.7267 14.7857 11.6366 14.7857 10.5C14.7857 9.36336 14.3342 8.27327 13.5305 7.46954C12.7267 6.66582 11.6366 6.21429 10.5 6.21429C9.36336 6.21429 8.27327 6.66582 7.46954 7.46954C6.66581 8.27327 6.21429 9.36336 6.21429 10.5Z" stroke="#CCCCCC" stroke-linecap="round" stroke-linejoin="round"/>
</svg>
